<?xml version="1.0" standalone="no"?><!DOCTYPE svg PUBLIC "-//W3C//DTD SVG 1.1//EN" "http://www.w3.org/Graphics/SVG/1.1/DTD/svg11.dtd"><svg t="1646748476132" class="icon" viewBox="0 0 1024 1024" version="1.1" xmlns="http://www.w3.org/2000/svg" p-id="1631" xmlns:xlink="http://www.w3.org/1999/xlink" width="200" height="200"><defs><style type="text/css"></style></defs><path d="M512 512m-271.058824 0a271.058824 271.058824 0 1 0 542.117648 0 271.058824 271.058824 0 1 0-542.117648 0Z" fill="#FFD922" p-id="1632"></path><path d="M451.764706 0h120.470588v180.705882h-120.470588zM451.764706 843.294118h120.470588v180.705882h-120.470588zM993.882353 421.647059v180.705882h-120.470588V421.647059zM150.588235 421.647059v180.705882h-120.470588V421.647059zM900.517647 749.929412v120.470588h-180.705882v-120.470588zM304.188235 153.6v120.470588h-180.705882v-120.470588z" fill="#F1CD20" p-id="1633"></path><path d="M719.811765 153.6h180.705882v120.470588h-180.705882zM123.482353 749.929412h180.705882v120.470588h-180.705882z" fill="#F1CD20" p-id="1634"></path></svg>