<?xml version="1.0" standalone="no"?><!DOCTYPE svg PUBLIC "-//W3C//DTD SVG 1.1//EN" "http://www.w3.org/Graphics/SVG/1.1/DTD/svg11.dtd"><svg t="1690878065339" class="icon" viewBox="0 0 1024 1024" version="1.1" xmlns="http://www.w3.org/2000/svg" p-id="9334" xmlns:xlink="http://www.w3.org/1999/xlink" width="200" height="200"><path d="M228.67 201.37c-11.82-11.65-30.47-11.65-42.29 0a29.579 29.579 0 0 0 0 42.23l42.29 42.23c11.82 11.65 30.47 11.65 42.29 0a29.579 29.579 0 0 0 0-42.23l-42.29-42.23z m566.66 0l-42.29 42.23a29.579 29.579 0 0 0 0 42.23c11.82 11.65 30.47 11.65 42.29 0l42.29-42.23a29.579 29.579 0 0 0 0-42.23c-11.82-11.65-30.47-11.65-42.29 0zM154.09 437.25H94.52c-16.37 0-30.02 13.59-30.02 29.61s13.19 29.61 30.02 29.61h59.58c16.37 0 30.02-13.59 30.02-29.61-0.01-16.02-13.66-29.61-30.03-29.61z m775.39 0H869.9c-16.37 0-30.02 13.59-30.02 29.61s13.19 29.61 30.02 29.61h59.58c16.37 0 30.02-13.59 30.02-29.61s-13.19-29.61-30.02-29.61zM481.98 94.11v59.7c0 16.5 13.19 29.61 30.02 29.61 16.37 0 30.02-13.59 30.02-29.61v-59.7c0-16.5-13.19-29.61-30.02-29.61-16.37 0-30.02 13.1-30.02 29.61zM243.68 512c0 148.52 120.06 268.4 268.32 268.4S780.32 660.03 780.32 512 660.26 243.6 512 243.6 243.68 363.48 243.68 512z m208.74 417.89c0 16.5 13.19 29.61 30.02 29.61h59.58c16.37 0 30.02-13.59 30.02-29.61 0-16.5-13.19-29.61-30.02-29.61h-60.03c-16.38-0.48-29.57 13.11-29.57 29.61z m-59.57-89.79c0 16.5 13.19 29.61 30.02 29.61h179.18c16.37 0 30.02-13.59 30.02-29.61s-13.19-29.61-30.02-29.61H422.41c-16.37 0.01-29.56 13.6-29.56 29.61z" fill="#ED7800" p-id="9335"></path></svg>